<svg width="21" height="21" viewBox="0 0 30 34" fill="none" xmlns="http://www.w3.org/2000/svg">
<path d="M11.9101 2.08309C12.1591 1.46762 12.5862 0.940542 13.1367 0.569408C13.6873 0.198274 14.3361 0 15 0C15.6639 0 16.3127 0.198274 16.8633 0.569408C17.4138 0.940542 17.8409 1.46762 18.0899 2.08309C20.5545 2.76089 22.7284 4.22899 24.2778 6.26192C25.8272 8.29485 26.6664 10.7802 26.6665 13.3362V21.1644L29.7198 25.7444C29.8872 25.9954 29.9834 26.2871 29.998 26.5885C30.0127 26.8899 29.9452 27.1896 29.8029 27.4556C29.6605 27.7217 29.4486 27.9441 29.1898 28.0991C28.9309 28.2542 28.6348 28.336 28.3331 28.336H20.7749C20.5742 29.7245 19.88 30.9942 18.8194 31.9125C17.7589 32.8308 16.4029 33.3363 15 33.3363C13.5971 33.3363 12.2411 32.8308 11.1806 31.9125C10.12 30.9942 9.42577 29.7245 9.2251 28.336H1.66689C1.36516 28.336 1.06907 28.2542 0.810221 28.0991C0.551372 27.9441 0.33947 27.7217 0.197123 27.4556C0.0547758 27.1896 -0.012676 26.8899 0.00196305 26.5885C0.0166021 26.2871 0.112783 25.9954 0.280245 25.7444L3.33353 21.1644V13.3362C3.33353 7.963 6.9668 3.43641 11.9101 2.08309ZM12.6434 28.336C12.8155 28.8237 13.1347 29.2461 13.5569 29.5448C13.9791 29.8436 14.4836 30.004 15.0008 30.004C15.5181 30.004 16.0225 29.8436 16.4448 29.5448C16.867 29.2461 17.1862 28.8237 17.3583 28.336H12.6417H12.6434ZM15 5.00305C12.7899 5.00305 10.6703 5.88101 9.10754 7.44378C7.54476 9.00656 6.66681 11.1261 6.66681 13.3362V21.6694C6.66688 21.9987 6.56945 22.3205 6.38681 22.5944L4.78184 25.0027H25.2165L23.6115 22.5944C23.4295 22.3203 23.3326 21.9985 23.3332 21.6694V13.3362C23.3332 11.1261 22.4552 9.00656 20.8925 7.44378C19.3297 5.88101 17.2101 5.00305 15 5.00305Z" fill="#575757"/>
</svg>
