<svg width="15" height="15" viewBox="0 0 21 21" fill="none" xmlns="http://www.w3.org/2000/svg">
<g clip-path="url(#clip0_634_1292)">
<path d="M8.75 11.375C9.12577 11.8773 9.60519 12.293 10.1557 12.5938C10.7063 12.8946 11.3151 13.0734 11.9408 13.1183C12.5666 13.1631 13.1946 13.0728 13.7824 12.8535C14.3702 12.6343 14.904 12.2912 15.3475 11.8475L17.9725 9.22247C18.7694 8.39734 19.2104 7.2922 19.2004 6.14509C19.1905 4.99798 18.7304 3.90067 17.9192 3.08951C17.108 2.27835 16.0107 1.81824 14.8636 1.80827C13.7165 1.7983 12.6114 2.23928 11.7863 3.03622L10.2812 4.53247" stroke="#868585" stroke-width="2" stroke-linecap="round" stroke-linejoin="round"/>
<path d="M12.25 9.62507C11.8742 9.12271 11.3948 8.70704 10.8443 8.40625C10.2937 8.10546 9.68493 7.9266 9.05918 7.88178C8.43343 7.83697 7.80536 7.92725 7.21757 8.14652C6.62978 8.36578 6.09602 8.70889 5.6525 9.15257L3.0275 11.7776C2.23056 12.6027 1.78958 13.7078 1.79955 14.855C1.80952 16.0021 2.26963 17.0994 3.08079 17.9105C3.89195 18.7217 4.98926 19.1818 6.13637 19.1918C7.28348 19.2017 8.38861 18.7608 9.21375 17.9638L10.71 16.4676" stroke="#868585" stroke-width="2" stroke-linecap="round" stroke-linejoin="round"/>
<path d="M1.36309 2.05556C1.0486 1.78599 0.575124 1.82241 0.305558 2.13691C0.0359909 2.4514 0.0724121 2.92488 0.386906 3.19444L1.36309 2.05556ZM0.386906 3.19444L18.7619 18.9444L19.7381 17.8056L1.36309 2.05556L0.386906 3.19444Z" fill="#868585"/>
</g>
<defs>
<clipPath id="clip0_634_1292">
<rect width="21" height="21" fill="white"/>
</clipPath>
</defs>
</svg>
