<svg width="23" height="23" viewBox="0 0 37 36" fill="none" xmlns="http://www.w3.org/2000/svg">
<g id="Icon/Lucide Icon">
<path id="Vector" d="M24.6667 6H27.7501C28.5678 6 29.3521 6.31607 29.9303 6.87868C30.5086 7.44129 30.8334 8.20435 30.8334 9V30C30.8334 30.7956 30.5086 31.5587 29.9303 32.1213C29.3521 32.6839 28.5678 33 27.7501 33H9.25008C8.43233 33 7.64807 32.6839 7.06984 32.1213C6.4916 31.5587 6.16675 30.7956 6.16675 30V9C6.16675 8.20435 6.4916 7.44129 7.06984 6.87868C7.64807 6.31607 8.43233 6 9.25008 6H12.3334" stroke="#575757" stroke-width="3" stroke-linecap="round" stroke-linejoin="round"/>
<path id="Vector_2" d="M23.1249 3H13.8749C13.466 3 13.0739 3.15804 12.7848 3.43934C12.4957 3.72064 12.3333 4.10218 12.3333 4.5V7.5C12.3333 7.89782 12.4957 8.27936 12.7848 8.56066C13.0739 8.84196 13.466 9 13.8749 9H23.1249C23.5338 9 23.9259 8.84196 24.215 8.56066C24.5042 8.27936 24.6666 7.89782 24.6666 7.5V4.5C24.6666 4.10218 24.5042 3.72064 24.215 3.43934C23.9259 3.15804 23.5338 3 23.1249 3V3Z" stroke="#575757" stroke-width="3" stroke-linecap="round" stroke-linejoin="round"/>
<path id="Vector_3" d="M18.5 16.5H24.6667" stroke="#575757" stroke-width="3" stroke-linecap="round" stroke-linejoin="round"/>
<path id="Vector_4" d="M18.5 24H24.6667" stroke="#575757" stroke-width="3" stroke-linecap="round" stroke-linejoin="round"/>
<path id="Vector_5" d="M12.3333 16.5H12.3487" stroke="#575757" stroke-width="3" stroke-linecap="round" stroke-linejoin="round"/>
<path id="Vector_6" d="M12.3333 24H12.3487" stroke="#575757" stroke-width="3" stroke-linecap="round" stroke-linejoin="round"/>
</g>
</svg>
