<svg width="690" height="388" viewBox="0 0 690 388" fill="none" xmlns="http://www.w3.org/2000/svg">
<g filter="url(#filter0_d_1188_826)">
<circle cx="80" cy="304" r="76" fill="#5E81FF"/>
</g>
<path d="M450 303L163 303" stroke="#A09696" stroke-width="5" stroke-dasharray="14 14"/>
<path d="M450 303L163 303" stroke="#A09696" stroke-width="5" stroke-dasharray="14 14"/>
<path d="M509 72L305 72" stroke="#A09696" stroke-width="5" stroke-dasharray="14 14"/>
<path d="M509 72L305 72" stroke="#A09696" stroke-width="5" stroke-dasharray="14 14"/>
<path d="M690 305L496 304" stroke="#A09696" stroke-width="7"/>
<path d="M306 143L397 249" stroke="#A09696" stroke-width="7"/>
<g filter="url(#filter1_d_1188_826)">
<circle cx="420" cy="304" r="76" fill="#5E81FF"/>
</g>
<path d="M244.445 79V64.8594H249.484C252.775 64.8594 254.387 66.6855 254.387 69.293C254.387 71.1973 253.527 72.6328 251.809 73.2871L254.934 79H252.492L249.621 73.668H249.484H246.594V79H244.445ZM246.594 71.8125H249.27C251.35 71.8027 252.219 70.8848 252.219 69.293C252.219 67.7012 251.35 66.7051 249.27 66.6953H246.594V71.8125ZM261.027 79.2148C257.902 79.2148 255.979 77.0566 255.988 73.7656C255.979 70.5039 257.932 68.2578 260.891 68.2578C263.303 68.2578 265.598 69.752 265.598 73.5898V74.332H258.059C258.117 76.3535 259.309 77.4961 261.047 77.4961C262.229 77.4961 263 76.9883 263.352 76.3438H265.461C264.992 78.0625 263.361 79.2148 261.027 79.2148ZM258.068 72.7695H263.547C263.547 71.1582 262.502 69.9668 260.91 69.9766C259.24 69.9668 258.156 71.2754 258.068 72.7695ZM269.758 64.8594V79H267.668V64.8594H269.758ZM276.867 79.2148C273.742 79.2148 271.818 77.0566 271.828 73.7656C271.818 70.5039 273.771 68.2578 276.73 68.2578C279.143 68.2578 281.438 69.752 281.438 73.5898V74.332H273.898C273.957 76.3535 275.148 77.4961 276.887 77.4961C278.068 77.4961 278.84 76.9883 279.191 76.3438H281.301C280.832 78.0625 279.201 79.2148 276.867 79.2148ZM273.908 72.7695H279.387C279.387 71.1582 278.342 69.9668 276.75 69.9766C275.08 69.9668 273.996 71.2754 273.908 72.7695ZM283.02 76.0117C283.01 73.5898 285.07 72.9648 286.984 72.8281C287.688 72.7891 289.279 72.7012 289.768 72.6816L289.758 71.832C289.768 70.6309 289.025 69.9375 287.609 69.9375C286.379 69.9375 285.637 70.5039 285.422 71.2852H283.352C283.537 69.5273 285.178 68.2578 287.688 68.2578C289.377 68.2578 291.838 68.873 291.848 71.9492V79H289.816V77.5547H289.738C289.328 78.3457 288.352 79.2344 286.594 79.2344C284.582 79.2344 283.01 78.082 283.02 76.0117ZM285.051 76.0312C285.051 77.0469 285.891 77.5645 287.062 77.5742C288.762 77.5645 289.777 76.4316 289.777 75.1719L289.768 74.2051C289.289 74.2344 287.775 74.3418 287.277 74.3711C285.91 74.4688 285.051 74.9863 285.051 76.0312ZM300.324 71.2852C300.129 70.4453 299.465 69.8984 298.312 69.8984C297.121 69.8984 296.271 70.5137 296.281 71.3242C296.271 71.9492 296.77 72.3984 297.941 72.6719L299.621 73.0625C301.574 73.502 302.521 74.4297 302.531 75.9336C302.521 77.8477 300.9 79.2148 298.195 79.2148C295.646 79.2148 294.143 78.082 293.879 76.1094H296.008C296.193 77.0664 296.916 77.5449 298.176 77.5352C299.523 77.5449 300.393 76.9785 300.402 76.0898C300.393 75.4062 299.885 74.9668 298.762 74.7031L297.102 74.3516C295.188 73.9316 294.191 72.9062 294.191 71.4414C294.191 69.5566 295.832 68.2578 298.293 68.2578C300.656 68.2578 302.131 69.459 302.336 71.2852H300.324ZM309.133 79.2148C306.008 79.2148 304.084 77.0566 304.094 73.7656C304.084 70.5039 306.037 68.2578 308.996 68.2578C311.408 68.2578 313.703 69.752 313.703 73.5898V74.332H306.164C306.223 76.3535 307.414 77.4961 309.152 77.4961C310.334 77.4961 311.105 76.9883 311.457 76.3438H313.566C313.098 78.0625 311.467 79.2148 309.133 79.2148ZM306.174 72.7695H311.652C311.652 71.1582 310.607 69.9668 309.016 69.9766C307.346 69.9668 306.262 71.2754 306.174 72.7695ZM249.621 88.8594V103H247.453V91.0078H247.375L243.996 93.2148V91.1641L247.512 88.8594H249.621ZM253.801 103.137C253.039 103.127 252.404 102.512 252.414 101.75C252.404 100.988 253.039 100.363 253.801 100.363C254.553 100.363 255.178 100.988 255.188 101.75C255.178 102.512 254.553 103.127 253.801 103.137ZM261.34 88.8594V103H259.172V91.0078H259.094L255.715 93.2148V91.1641L259.23 88.8594H261.34ZM265.52 103.137C264.758 103.127 264.123 102.512 264.133 101.75C264.123 100.988 264.758 100.363 265.52 100.363C266.271 100.363 266.896 100.988 266.906 101.75C266.896 102.512 266.271 103.127 265.52 103.137ZM273.801 103.195C270.529 103.195 268.605 100.559 268.605 95.9297C268.605 91.3301 270.549 88.6641 273.801 88.6641C277.043 88.6641 278.986 91.3301 278.996 95.9297C278.986 100.559 277.072 103.195 273.801 103.195ZM270.754 95.9297C270.744 99.4551 271.887 101.34 273.801 101.34C275.705 101.34 276.848 99.4551 276.848 95.9297C276.848 92.4141 275.695 90.4902 273.801 90.4805C271.896 90.4902 270.754 92.4141 270.754 95.9297Z" fill="white"/>
<path d="M386.59 294.324L390.887 307.801H391.058L395.379 294.324H399.432L393.328 312H388.616L382.488 294.324H386.59ZM414.715 294.324V312H411.028V297.815H410.931L406.878 300.354V297.107L411.248 294.324H414.715ZM420.013 312.22C418.865 312.22 417.938 311.304 417.962 310.169C417.938 309.046 418.865 308.13 420.013 308.143C421.099 308.13 422.039 309.046 422.039 310.169C422.039 311.304 421.099 312.22 420.013 312.22ZM431.048 312.244C426.617 312.244 423.943 308.948 423.943 303.162C423.943 297.388 426.641 294.08 431.048 294.08C435.455 294.08 438.152 297.388 438.152 303.162C438.152 308.973 435.467 312.244 431.048 312.244ZM427.703 303.162C427.679 307.239 428.997 309.217 431.048 309.217C433.099 309.217 434.405 307.239 434.393 303.162C434.405 299.122 433.086 297.095 431.048 297.083C429.009 297.095 427.703 299.122 427.703 303.162ZM442.107 312.22C440.96 312.22 440.032 311.304 440.057 310.169C440.032 309.046 440.96 308.13 442.107 308.143C443.194 308.13 444.134 309.046 444.134 310.169C444.134 311.304 443.194 312.22 442.107 312.22ZM453.143 312.244C448.711 312.244 446.038 308.948 446.038 303.162C446.038 297.388 448.736 294.08 453.143 294.08C457.549 294.08 460.247 297.388 460.247 303.162C460.247 308.973 457.562 312.244 453.143 312.244ZM449.798 303.162C449.773 307.239 451.092 309.217 453.143 309.217C455.193 309.217 456.5 307.239 456.487 303.162C456.5 299.122 455.181 297.095 453.143 297.083C451.104 297.095 449.798 299.122 449.798 303.162Z" fill="white"/>
<path d="M42.5898 294.324L46.8867 307.801H47.0576L51.3789 294.324H55.4316L49.3281 312H44.6162L38.4883 294.324H42.5898ZM63.0977 312L63.0732 309.339L69.4209 303.504C71.0688 301.929 71.96 300.953 71.96 299.549C71.96 297.974 70.7759 296.998 69.1523 297.01C67.4922 296.998 66.4058 298.047 66.418 299.744H62.9268C62.9146 296.29 65.478 294.08 69.2012 294.08C72.9854 294.08 75.5 296.241 75.5 299.305C75.5 301.319 74.5234 302.967 70.8857 306.263L68.2002 308.875V308.973H75.7441V312H63.0977ZM80.5049 312.22C79.3574 312.22 78.4297 311.304 78.4541 310.169C78.4297 309.046 79.3574 308.13 80.5049 308.143C81.5913 308.13 82.5312 309.046 82.5312 310.169C82.5312 311.304 81.5913 312.22 80.5049 312.22ZM91.54 312.244C87.1089 312.244 84.4355 308.948 84.4355 303.162C84.4355 297.388 87.1333 294.08 91.54 294.08C95.9468 294.08 98.6445 297.388 98.6445 303.162C98.6445 308.973 95.959 312.244 91.54 312.244ZM88.1953 303.162C88.1709 307.239 89.4893 309.217 91.54 309.217C93.5908 309.217 94.897 307.239 94.8848 303.162C94.897 299.122 93.5786 297.095 91.54 297.083C89.5015 297.095 88.1953 299.122 88.1953 303.162ZM102.6 312.22C101.452 312.22 100.524 311.304 100.549 310.169C100.524 309.046 101.452 308.13 102.6 308.143C103.686 308.13 104.626 309.046 104.626 310.169C104.626 311.304 103.686 312.22 102.6 312.22ZM113.635 312.244C109.204 312.244 106.53 308.948 106.53 303.162C106.53 297.388 109.228 294.08 113.635 294.08C118.042 294.08 120.739 297.388 120.739 303.162C120.739 308.973 118.054 312.244 113.635 312.244ZM110.29 303.162C110.266 307.239 111.584 309.217 113.635 309.217C115.686 309.217 116.992 307.239 116.979 303.162C116.992 299.122 115.673 297.095 113.635 297.083C111.596 297.095 110.29 299.122 110.29 303.162Z" fill="white"/>
<g filter="url(#filter2_d_1188_826)">
<rect x="212" y="22" width="135" height="125" rx="15" fill="#FF6262"/>
</g>
<path d="M244.59 76.3242L248.887 89.8008H249.058L253.379 76.3242H257.432L251.328 94H246.616L240.488 76.3242H244.59ZM272.715 76.3242V94H269.028V79.8154H268.931L264.878 82.3545V79.1074L269.248 76.3242H272.715ZM278.013 94.2197C276.865 94.2197 275.938 93.3042 275.962 92.1689C275.938 91.0459 276.865 90.1304 278.013 90.1426C279.099 90.1304 280.039 91.0459 280.039 92.1689C280.039 93.3042 279.099 94.2197 278.013 94.2197ZM288.34 76.3242V94H284.653V79.8154H284.556L280.503 82.3545V79.1074L284.873 76.3242H288.34ZM293.638 94.2197C292.49 94.2197 291.562 93.3042 291.587 92.1689C291.562 91.0459 292.49 90.1304 293.638 90.1426C294.724 90.1304 295.664 91.0459 295.664 92.1689C295.664 93.3042 294.724 94.2197 293.638 94.2197ZM304.673 94.2441C300.242 94.2441 297.568 90.9482 297.568 85.1621C297.568 79.3882 300.266 76.0801 304.673 76.0801C309.08 76.0801 311.777 79.3882 311.777 85.1621C311.777 90.9727 309.092 94.2441 304.673 94.2441ZM301.328 85.1621C301.304 89.2393 302.622 91.2168 304.673 91.2168C306.724 91.2168 308.03 89.2393 308.018 85.1621C308.03 81.1216 306.711 79.0952 304.673 79.083C302.634 79.0952 301.328 81.1216 301.328 85.1621Z" fill="white"/>
<g filter="url(#filter3_d_1188_826)">
<path d="M549.89 8.30375C552.233 4.4965 557.767 4.49651 560.11 8.30376L626.449 116.105C628.909 120.103 626.033 125.25 621.339 125.25H488.661C483.967 125.25 481.091 120.103 483.551 116.105L549.89 8.30375Z" fill="#FFCE70"/>
</g>
<path d="M527.59 71.3242L531.887 84.8008H532.058L536.379 71.3242H540.432L534.328 89H529.616L523.488 71.3242H527.59ZM555.715 71.3242V89H552.028V74.8154H551.931L547.878 77.3545V74.1074L552.248 71.3242H555.715ZM561.013 89.2197C559.865 89.2197 558.938 88.3042 558.962 87.1689C558.938 86.0459 559.865 85.1304 561.013 85.1426C562.099 85.1304 563.039 86.0459 563.039 87.1689C563.039 88.3042 562.099 89.2197 561.013 89.2197ZM571.34 71.3242V89H567.653V74.8154H567.556L563.503 77.3545V74.1074L567.873 71.3242H571.34ZM576.638 89.2197C575.49 89.2197 574.562 88.3042 574.587 87.1689C574.562 86.0459 575.49 85.1304 576.638 85.1426C577.724 85.1304 578.664 86.0459 578.664 87.1689C578.664 88.3042 577.724 89.2197 576.638 89.2197ZM586.965 71.3242V89H583.278V74.8154H583.181L579.128 77.3545V74.1074L583.498 71.3242H586.965Z" fill="white"/>
<defs>
<filter id="filter0_d_1188_826" x="0" y="228" width="160" height="160" filterUnits="userSpaceOnUse" color-interpolation-filters="sRGB">
<feFlood flood-opacity="0" result="BackgroundImageFix"/>
<feColorMatrix in="SourceAlpha" type="matrix" values="0 0 0 0 0 0 0 0 0 0 0 0 0 0 0 0 0 0 127 0" result="hardAlpha"/>
<feOffset dy="4"/>
<feGaussianBlur stdDeviation="2"/>
<feComposite in2="hardAlpha" operator="out"/>
<feColorMatrix type="matrix" values="0 0 0 0 0 0 0 0 0 0 0 0 0 0 0 0 0 0 0.25 0"/>
<feBlend mode="normal" in2="BackgroundImageFix" result="effect1_dropShadow_1188_826"/>
<feBlend mode="normal" in="SourceGraphic" in2="effect1_dropShadow_1188_826" result="shape"/>
</filter>
<filter id="filter1_d_1188_826" x="340" y="228" width="160" height="160" filterUnits="userSpaceOnUse" color-interpolation-filters="sRGB">
<feFlood flood-opacity="0" result="BackgroundImageFix"/>
<feColorMatrix in="SourceAlpha" type="matrix" values="0 0 0 0 0 0 0 0 0 0 0 0 0 0 0 0 0 0 127 0" result="hardAlpha"/>
<feOffset dy="4"/>
<feGaussianBlur stdDeviation="2"/>
<feComposite in2="hardAlpha" operator="out"/>
<feColorMatrix type="matrix" values="0 0 0 0 0 0 0 0 0 0 0 0 0 0 0 0 0 0 0.25 0"/>
<feBlend mode="normal" in2="BackgroundImageFix" result="effect1_dropShadow_1188_826"/>
<feBlend mode="normal" in="SourceGraphic" in2="effect1_dropShadow_1188_826" result="shape"/>
</filter>
<filter id="filter2_d_1188_826" x="208" y="22" width="143" height="133" filterUnits="userSpaceOnUse" color-interpolation-filters="sRGB">
<feFlood flood-opacity="0" result="BackgroundImageFix"/>
<feColorMatrix in="SourceAlpha" type="matrix" values="0 0 0 0 0 0 0 0 0 0 0 0 0 0 0 0 0 0 127 0" result="hardAlpha"/>
<feOffset dy="4"/>
<feGaussianBlur stdDeviation="2"/>
<feComposite in2="hardAlpha" operator="out"/>
<feColorMatrix type="matrix" values="0 0 0 0 0 0 0 0 0 0 0 0 0 0 0 0 0 0 0.25 0"/>
<feBlend mode="normal" in2="BackgroundImageFix" result="effect1_dropShadow_1188_826"/>
<feBlend mode="normal" in="SourceGraphic" in2="effect1_dropShadow_1188_826" result="shape"/>
</filter>
<filter id="filter3_d_1188_826" x="478.651" y="5.44824" width="152.697" height="127.802" filterUnits="userSpaceOnUse" color-interpolation-filters="sRGB">
<feFlood flood-opacity="0" result="BackgroundImageFix"/>
<feColorMatrix in="SourceAlpha" type="matrix" values="0 0 0 0 0 0 0 0 0 0 0 0 0 0 0 0 0 0 127 0" result="hardAlpha"/>
<feOffset dy="4"/>
<feGaussianBlur stdDeviation="2"/>
<feComposite in2="hardAlpha" operator="out"/>
<feColorMatrix type="matrix" values="0 0 0 0 0 0 0 0 0 0 0 0 0 0 0 0 0 0 0.25 0"/>
<feBlend mode="normal" in2="BackgroundImageFix" result="effect1_dropShadow_1188_826"/>
<feBlend mode="normal" in="SourceGraphic" in2="effect1_dropShadow_1188_826" result="shape"/>
</filter>
</defs>
</svg>
