<svg width="20" height="20" viewBox="0 0 24 24" fill="none" xmlns="http://www.w3.org/2000/svg">
<g id="Name=link">
<path id="Vector" d="M10 13C10.4295 13.5741 10.9774 14.0491 11.6066 14.3929C12.2357 14.7367 12.9315 14.9411 13.6467 14.9923C14.3618 15.0435 15.0796 14.9403 15.7513 14.6897C16.4231 14.4392 17.0331 14.047 17.54 13.54L20.54 10.54C21.4508 9.59695 21.9548 8.33394 21.9434 7.02296C21.932 5.71198 21.4061 4.45791 20.4791 3.53087C19.5521 2.60383 18.298 2.07799 16.987 2.0666C15.676 2.0552 14.413 2.55918 13.47 3.46997L11.75 5.17997" stroke="#212121" stroke-width="3" stroke-linecap="round" stroke-linejoin="round"/>
<path id="Vector_2" d="M14 11.0002C13.5705 10.4261 13.0226 9.95104 12.3935 9.60729C11.7643 9.26353 11.0685 9.05911 10.3534 9.00789C9.63821 8.95667 8.92041 9.05986 8.24866 9.31044C7.5769 9.56103 6.96689 9.95316 6.46 10.4602L3.46 13.4602C2.54921 14.4032 2.04524 15.6662 2.05663 16.9772C2.06802 18.2882 2.59387 19.5423 3.52091 20.4693C4.44795 21.3964 5.70201 21.9222 7.013 21.9336C8.32398 21.945 9.58699 21.441 10.53 20.5302L12.24 18.8202" stroke="#212121" stroke-width="3" stroke-linecap="round" stroke-linejoin="round"/>
</g>
</svg>
