<svg width="24" height="21" viewBox="0 0 24 21" fill="none" xmlns="http://www.w3.org/2000/svg">
<path d="M3 5.25H5H21" stroke="#747474" stroke-width="2" stroke-linecap="round" stroke-linejoin="round"/>
<path d="M8 5.25V3.5C8 3.03587 8.21071 2.59075 8.58579 2.26256C8.96086 1.93437 9.46957 1.75 10 1.75H14C14.5304 1.75 15.0391 1.93437 15.4142 2.26256C15.7893 2.59075 16 3.03587 16 3.5V5.25M19 5.25V17.5C19 17.9641 18.7893 18.4092 18.4142 18.7374C18.0391 19.0656 17.5304 19.25 17 19.25H7C6.46957 19.25 5.96086 19.0656 5.58579 18.7374C5.21071 18.4092 5 17.9641 5 17.5V5.25H19Z" stroke="#747474" stroke-width="2" stroke-linecap="round" stroke-linejoin="round"/>
</svg>
