<svg viewBox="0 0 739 344" fill="none" xmlns="http://www.w3.org/2000/svg">
<rect width="739" height="344" fill="#f1f1f1"/>
<path d="M590.284 62.0289L680.968 212.225C681.572 213.224 680.852 214.5 679.684 214.5H498.316C497.148 214.5 496.428 213.224 497.032 212.225L587.716 62.0289C588.299 61.0626 589.701 61.0626 590.284 62.0289Z" fill="#FFCE70" stroke="#0A0000" stroke-width="3"/>
<rect x="292.5" y="58.5" width="165" height="156" rx="2.5" fill="#ED726F" stroke="black" stroke-width="3"/>
<circle cx="162.5" cy="139.5" r="87" fill="#5E81FF" stroke="black" stroke-width="3"/>
<path d="M85.6855 258.648H95.9883L105.119 280.914H105.51L114.641 258.648H124.943V294H116.838V272.027H116.545L107.951 293.805H102.678L94.084 271.93H93.791V294H85.6855V258.648ZM136.639 294H127.654L139.666 258.648H150.701L162.664 294H153.729L151.336 286.432H139.031L136.639 294ZM141.033 280.084H149.334L145.33 267.389H145.037L141.033 280.084ZM179.73 258.648H187.934V283.111C187.934 289.996 182.782 294.488 175.336 294.488C168.793 294.488 163.52 291.119 163.568 283.6H171.869C171.942 286.358 173.432 287.896 175.824 287.896C178.339 287.896 179.706 286.261 179.73 283.111V258.648ZM225.459 276.324C225.483 287.97 218.135 294.488 208.662 294.488C199.141 294.488 191.865 287.921 191.865 276.324C191.865 264.654 199.141 258.16 208.662 258.16C218.135 258.16 225.483 264.654 225.459 276.324ZM200.361 276.324C200.361 283.355 203.511 287.164 208.662 287.164C213.838 287.164 216.987 283.355 216.963 276.324C216.987 269.293 213.838 265.46 208.662 265.484C203.511 265.46 200.361 269.293 200.361 276.324ZM229.391 294V258.648H243.844C251.803 258.648 256.71 263.165 256.686 270.367C256.71 275.25 254.464 278.717 250.558 280.499L257.955 294H248.824L242.33 281.842H237.691V294H229.391ZM237.691 275.201H242.086C246.017 275.226 248.092 273.688 248.092 270.367C248.092 267.047 246.017 265.387 242.086 265.387H237.691V275.201Z" fill="black"/>
<path d="M301.686 258.648H311.988L321.119 280.914H321.51L330.641 258.648H340.943V294H332.838V272.027H332.545L323.951 293.805H318.678L310.084 271.93H309.791V294H301.686V258.648ZM353.615 258.648V294H345.314V258.648H353.615ZM387.967 258.648V294H380.887L366.531 273.248H366.287V294H357.986V258.648H365.164L379.373 279.4H379.666V258.648H387.967ZM425.492 276.324C425.517 287.97 418.168 294.488 408.695 294.488C399.174 294.488 391.898 287.921 391.898 276.324C391.898 264.654 399.174 258.16 408.695 258.16C418.168 258.16 425.517 264.654 425.492 276.324ZM400.395 276.324C400.395 283.355 403.544 287.164 408.695 287.164C413.871 287.164 417.021 283.355 416.996 276.324C417.021 269.293 413.871 265.46 408.695 265.484C403.544 265.46 400.395 269.293 400.395 276.324ZM429.424 294V258.648H443.877C451.836 258.648 456.743 263.165 456.719 270.367C456.743 275.25 454.497 278.717 450.591 280.499L457.988 294H448.857L442.363 281.842H437.725V294H429.424ZM437.725 275.201H442.119C446.05 275.226 448.125 273.688 448.125 270.367C448.125 267.047 446.05 265.387 442.119 265.387H437.725V275.201Z" fill="black"/>
<path d="M507.686 291V255.648H522.139C530.098 255.648 535.005 260.604 534.98 267.807C535.005 275.106 530 279.916 521.895 279.916H515.986V291H507.686ZM515.986 273.324H520.381C524.312 273.349 526.387 271.151 526.387 267.807C526.387 264.511 524.312 262.387 520.381 262.387H515.986V273.324ZM541.256 291H532.271L544.283 255.648H555.318L567.281 291H558.346L555.953 283.432H543.648L541.256 291ZM545.65 277.084H553.951L549.947 264.389H549.654L545.65 277.084ZM564.426 262.436V255.648H594.162V262.436H583.42V291H575.168V262.436H564.426ZM619.188 268.393C618.724 264.755 616.111 262.46 612.156 262.484C606.956 262.46 603.758 266.439 603.758 273.324C603.758 280.453 607.029 284.164 612.107 284.164C615.916 284.164 618.553 282.113 619.188 278.646L627.586 278.695C626.927 284.994 621.531 291.488 611.961 291.488C602.391 291.488 595.262 284.945 595.262 273.324C595.262 261.654 602.537 255.16 611.961 255.16C620.433 255.16 626.707 259.97 627.586 268.393H619.188ZM631.42 291V255.648H639.721V269.906H653.93V255.648H662.23V291H653.93V276.693H639.721V291H631.42Z" fill="black"/>
</svg>
